<svg id="Layer_1" data-name="Layer 1" xmlns="http://www.w3.org/2000/svg" viewBox="0 0 437.62 367.83"><defs><style>.cls-1{fill:none;}.cls-2{fill:#fff;}.cls-3{fill:#00878f;}.cls-4{fill:#e47128;}.cls-5{fill:#e5ad24;}.cls-6,.cls-7{fill:#62aeb2;}.cls-7{font-size:58px;font-family:OCRAStd, OCR A Std;}</style></defs><title>devino</title><circle class="cls-1" cx="232.51" cy="87.32" r="0.5"/><path class="cls-2" d="M564.2,401.57c-3.16,3.54-6.36,7-9.66,10.43V401.57Z" transform="translate(-411.53 -180.75)"/><path class="cls-2" d="M848.35,350a120,120,0,0,1-96.52,91.24c-6.52,1.12-13.18,1.49-19.79,2-2.92.25-5.22.55-5,4.46.22,3.45-2.62,2.74-4.67,2.71a132,132,0,0,1-49.88-10.78c-33.64-14.23-58.68-38.58-79.43-67.92-4.1-5.81-8.09-11.7-12.57-18.18l-.53.78V331h-3.46V313H584V294.54l1.45,2c1.2-1.78,2.3-3.29,3.29-4.87,19.69-31.25,43.57-58.56,77.59-74.39,50.34-23.41,98.59-19.34,143.42,14.62,2.35,1.78,4.4,3.94,6.78,6.1l-4,4.76c-29.43-27.4-64.06-37.82-104.19-32.54.74,5.53,1.24,10.44,2.22,15.25.16.76,2.54,1.59,3.85,1.51,16.05-.94,32-.59,47.31,4.92a92.73,92.73,0,0,1,13.78,5.76c4.38,2.42,7.86,3.75,10.06-3.15,4.57,3.19,8.84,5.76,12.63,8.88C826.78,267,840.68,297,837.55,334.27c-.44,5.19.66,7.5,6.13,8.15C849.79,343.14,849.81,343.73,848.35,350Z" transform="translate(-411.53 -180.75)"/><path class="cls-2" d="M584.66,274h0a2.16,2.16,0,0,1-.65.47l-.66.42-.64-.9Z" transform="translate(-411.53 -180.75)"/><path class="cls-2" d="M832.38,222.73l-6.25,5.42c-2-1.68-4-3.36-6.09-5-45.51-36.28-95.67-42.75-149.34-22-34.65,13.38-60.54,38.11-82.21,67.63-1.16,1.58-2.31,3.18-3.49,4.76V262.1c.41.53.82,1,1.22,1.58,3-3.72,5.46-7.1,8.29-10.06,9-9.36,18-18.68,27.26-27.77,2.27-2.22,4-3.9,1.55-6.76C686,165,780.61,170,832.38,222.73Z" transform="translate(-411.53 -180.75)"/><path class="cls-2" d="M805.27,437C744,471.25,686,465.1,630.25,424.25l-3.65,4.58c52.14,45.7,132.87,47.59,181.89,12.87Z" transform="translate(-411.53 -180.75)"/><path class="cls-3" d="M843.68,342.42c-5.47-.65-6.57-3-6.13-8.15,3.13-37.26-10.77-67.32-39.38-90.88-3.79-3.12-8.06-5.69-12.63-8.88-2.2,6.9-5.68,5.57-10.06,3.15a92.73,92.73,0,0,0-13.78-5.76c-15.35-5.51-31.26-5.86-47.31-4.92-1.31.08-3.69-.75-3.85-1.51-1-4.81-1.48-9.72-2.22-15.25,40.13-5.28,74.76,5.14,104.19,32.54l4-4.76c-2.38-2.16-4.43-4.32-6.78-6.1-44.83-34-93.08-38-143.42-14.62-29.92,13.91-53.11,38-71.42,65-2.84,4.19-5.32,8.34-8.41,12.34-3.47,4.5-6.66,9.33-8.39,14.79-2,6.37-1.92,13.2-1.67,19.88.23,5.88-.28,12.09,1.22,17.85,1.24,4.75,4.47,8.5,7.3,12.37s5.3,8.27,8.14,12.28c20.75,29.34,45.79,53.69,79.43,67.92a132,132,0,0,0,49.88,10.78c2.05,0,4.89.74,4.67-2.71-.26-3.91,2-4.21,5-4.46,6.61-.56,13.27-.93,19.79-2A120,120,0,0,0,848.35,350C849.81,343.73,849.79,343.14,843.68,342.42Zm-14.94-15.29c0,.54,0,1.08,0,1.62,0,.28,0,.55,0,.83,0,.72-.08,1.44-.13,2.15q-.06.84-.15,1.68c-.06.56-.11,1.13-.18,1.69,0,.34-.07.67-.12,1-.25,2-.56,3.95-.94,5.92a97.44,97.44,0,0,1-4.93,17q-.39,1-.81,2c-.52,1.23-1.08,2.44-1.66,3.62-.29.6-.59,1.19-.89,1.77s-.62,1.17-.94,1.75-.52.95-.8,1.42c-.41.74-.85,1.47-1.29,2.19-.24.4-.48.79-.73,1.18s-.45.73-.69,1.09c-.73,1.14-1.48,2.26-2.25,3.38-.43.63-.87,1.25-1.31,1.87s-.82,1.15-1.24,1.72c-1.67,2.29-3.39,4.54-5.14,6.8-7.11,9.17-15.82,16-25.8,21.79.17.76.33,1.47.48,2.18s.27,1.23.42,1.88c.05.2.09.4.14.6h0a19.43,19.43,0,0,1-2.34,1.62,103.14,103.14,0,0,1-37.63,10.87c-14.61,1.33-29.17.52-43.44-3.54-3.71-1.06-6.23-2.23-4.38-6.74-4.24-1.84-8.17-3.61-12.14-5.27-23-9.63-40.53-26.11-55.31-45.45-1.57-2.06-3.09-4.15-4.58-6.27-.54-.77-1.08-1.55-1.61-2.34q-1-1.46-2-2.94c-.65-1-1.3-2-1.94-3s-1.28-2-1.91-3-1.26-2-1.88-3c-1.63-2.61-3.23-5.24-4.83-7.87l-3-4.85-3-4.84c-2.15-3.48-3.41-7.58-4.62-11.54A6.23,6.23,0,0,1,595,314c0-.13,0-.28,0-.42a8,8,0,0,1,.24-1.22c0-.14.08-.26.12-.39a6.41,6.41,0,0,1,.47-1.06c.74-1.3,1.5-2.59,2.26-3.87s1.53-2.56,2.3-3.83q2.34-3.79,4.78-7.5t5-7.29q1.27-1.79,2.59-3.56c.87-1.18,1.75-2.34,2.65-3.5,1.31-1.68,2.63-3.34,4-5,.8-1,1.61-1.94,2.43-2.9s1.5-1.74,2.26-2.6,1.32-1.48,2-2.21c.42-.47.85-.94,1.28-1.4s.74-.79,1.12-1.18,1-1.06,1.51-1.58q2.21-2.28,4.51-4.49c.59-.58,1.19-1.15,1.79-1.7l.7-.66c.54-.5,1.08-1,1.63-1.48l1-.87q.76-.69,1.53-1.35l1.08-.93c.48-.42,1-.83,1.46-1.23.75-.63,1.51-1.25,2.27-1.86l1.43-1.13c1.27-1,2.56-2,3.87-3q.28-.22.57-.42.6-.47,1.2-.87c.62-.46,1.24-.9,1.87-1.34l1.55-1.07c.33-.23.65-.45,1-.66.6-.41,1.21-.81,1.82-1.21.85-.56,1.72-1.11,2.59-1.66l.1-.06c1.09-.69,2.2-1.37,3.32-2,1.46-.87,4.36-1.58,5.16-.83l.44.41a6,6,0,0,1,1.82,2.74,3.75,3.75,0,0,1,.11.6,4.31,4.31,0,0,1,0,.94,1.91,1.91,0,0,1-.06.33,5.91,5.91,0,0,1-.33,1,2.48,2.48,0,0,1-.17.38,3.49,3.49,0,0,1-.19.39,2.21,2.21,0,0,0-.22.73c-.2,2,2,5.35,3,8.44,18.4-10.21,36.65-15.47,56.23-14.43,35,1.86,61.89,17.51,79.37,48.26,2,3.46,3.23,5.93,7.74,3.34,3.63-2.1,4,1.59,4.82,3.7A94.89,94.89,0,0,1,828.77,325Q828.77,326.08,828.74,327.13Z" transform="translate(-411.53 -180.75)"/><path class="cls-4" d="M832.38,222.73l-6.25,5.42c-2-1.68-4-3.36-6.09-5-45.51-36.28-95.67-42.75-149.34-22-34.65,13.38-60.54,38.11-82.21,67.63-1.16,1.58-2.31,3.18-3.49,4.76V266c.41.53.82-2.85,1.22-2.32,3-3.72,5.46-7.1,8.29-10.06,9-9.36,18-18.68,27.26-27.77,2.27-2.22,4-3.9,1.55-6.76C686,165,780.61,170,832.38,222.73Z" transform="translate(-411.53 -180.75)"/><path class="cls-4" d="M805.27,437l3.22,4.68c-49,34.72-129.75,32.83-181.89-12.87l3.65-4.58C686,465.1,744,471.25,805.27,437Z" transform="translate(-411.53 -180.75)"/><path class="cls-2" d="M674.73,251.74c18.4-10.21,36.65-15.47,56.23-14.43,35,1.86,61.89,17.51,79.37,48.26,2,3.46,3.23,5.93,7.74,3.34,3.63-2.1,4,1.59,4.82,3.7,8,22.2,7.86,44.37-.7,66.4-4.14,10.67-10.74,19.75-17.74,28.77-7.11,9.17-15.83,16-25.81,21.79l1,4.66a19.43,19.43,0,0,1-2.34,1.62,103.14,103.14,0,0,1-37.63,10.87c-14.61,1.33-29.17.52-43.44-3.54-3.71-1.06-6.23-2.23-4.38-6.74-4.24-1.84-8.17-3.61-12.14-5.27-23-9.63-40.53-26.11-55.31-45.45-9.16-12-16.69-25.22-24.65-38.08-2.15-3.48-3.41-7.58-4.62-11.54a7.29,7.29,0,0,1,.66-5.15c17.31-30.21,39-56.36,69.4-74.38,1.46-.87,4.36-1.58,5.16-.83,1.67,1.55,3.45,3.36,1.57,6.83C671,244.43,673.57,248.24,674.73,251.74Zm51.58,87.45c13.49,0,27,0,40.45,0,2.49,0,4.64.1,4.56-3.48-.16-7.16-.11-14.32,0-21.48,0-2.65-1.15-3.4-3.62-3.46-11.63-.26-23.25-1-34.87-.93-15.62.05-31.24.71-46.86.89-3.44,0-4.21,1.4-4.13,4.49.16,6.49.21,13,0,19.48-.13,3.51,1.06,4.58,4.56,4.54C699.68,339.08,713,339.19,726.31,339.19Zm-117.67-32.6c-4.53,4.6-5.79,8.36-3.16,13.68a212,212,0,0,0,29,43.42c1.58,1.85,3.28,3.6,5.22,5.73l6.73-6.85C630.69,346.07,618.74,327.4,608.64,306.59Z" transform="translate(-411.53 -180.75)"/><path class="cls-5" d="M712.94,324.31c0-13.31.1-26.63-.07-39.94,0-3.5,1-4.69,4.54-4.56,6.48.23,13,.18,19.48,0,3.08-.08,4.44.7,4.48,4.14.18,15.62.85,31.24.89,46.86,0,11.62-.67,23.24-.93,34.87-.05,2.47-.81,3.65-3.46,3.62-7.16-.1-14.32-.15-21.48,0-3.57.08-3.48-2.07-3.47-4.56C713,351.28,712.94,337.79,712.94,324.31Z" transform="translate(-411.53 -180.75)"/><path class="cls-3" d="M726.31,339.19c-13.31,0-26.63-.11-39.94.07-3.5,0-4.69-1-4.56-4.54.23-6.49.18-13,0-19.48-.08-3.09.69-4.45,4.13-4.49,15.62-.18,31.24-.84,46.86-.89,11.62,0,23.24.67,34.87.93,2.47.06,3.65.81,3.62,3.46-.1,7.16-.15,14.32,0,21.48.08,3.58-2.07,3.48-4.56,3.48C753.28,339.17,739.8,339.19,726.31,339.19Z" transform="translate(-411.53 -180.75)"/><path class="cls-5" d="M608.64,306.59c10.1,20.81,22.05,39.48,37.81,56l-6.73,6.85c-1.94-2.13-3.64-3.88-5.22-5.73a212,212,0,0,1-29-43.42C602.85,315,604.11,311.19,608.64,306.59Z" transform="translate(-411.53 -180.75)"/><path class="cls-6" d="M497.32,325.7l43.8,35.17c14.86,11.94,29.87,23.7,44.52,35.88,15.25,12.68,16.9,32.74,4.41,47.92-11,13.43-31.48,15.35-46.11,3.75q-58.83-46.6-117.28-93.67c-20.16-16.31-20.12-39.38-.19-55.83q58.38-48.19,117.13-96c14.58-11.88,35.41-10.07,46.58,3.67,12.43,15.3,10.73,35.3-4.68,47.87-27.53,22.45-55.34,44.55-83,66.81C501,322.52,499.55,323.8,497.32,325.7Z" transform="translate(-411.53 -180.75)"/><rect class="cls-5" x="452" y="272" width="106" height="16" rx="8" ry="8" transform="translate(-472.67 212.85) rotate(-40.35)"/><circle class="cls-4" cx="152.47" cy="246.25" r="10"/><text class="cls-7" transform="translate(84.07 350.58)">Dev<tspan class="cls-4" x="125.28" y="0">.</tspan><tspan class="cls-3" x="167.04" y="0">ino</tspan></text></svg>